<svg xmlns="http://www.w3.org/2000/svg" width="1080" height="1350" viewBox="0 0 1080 1350"><style>@font-face{font-family:'Alfa Slab One';src:url('../../fonts/AlfaSlabOne-Regular.ttf')}@font-face{font-family:'Inter';src:url('../../fonts/Inter-Variable.ttf')}</style><rect width="100%" height="100%" fill="#1A1A1A"/><rect x="756" width="324" height="100%" fill="#E47B28"/><circle cx="766" cy="237" r="75" fill="#476E3D"/><g transform="translate(81 81) scale(0.7578125)">
<rect width="256" height="256" fill="#476E3D"/>
<g fill="none" stroke-linecap="butt" stroke-linejoin="round">
  <g stroke="#1A1A1A" stroke-width="18"><path d="M35 78V35h43"/><path d="M178 35h43v43"/><path d="M221 178v43h-43"/><path d="M78 221H35v-43"/></g>
  <g stroke="#E8E6E0" stroke-width="8"><path d="M35 78V35h43"/><path d="M178 35h43v43"/><path d="M221 178v43h-43"/><path d="M78 221H35v-43"/></g>
</g>
<path d="M62 194 108 55h40l46 139h-35l-10-30h-42l-10 30Z" fill="#E47B28" stroke="#1A1A1A" stroke-width="8" stroke-linejoin="round"/>
<path d="m128 99-15 43h30Z" fill="#476E3D" stroke="#1A1A1A" stroke-width="7" stroke-linejoin="round"/>
</g><text x="313" y="174" fill="#E8E6E0" font-family="Inter" font-size="27" letter-spacing="2">ACTIVE SHOT</text><text x="81" y="484" fill="#E8E6E0" font-family="Alfa Slab One" font-size="107">THE SHOT LIST</text><text x="81" y="593" fill="#E8E6E0" font-family="Alfa Slab One" font-size="107">THAT MOVES</text><text x="81" y="702" fill="#E8E6E0" font-family="Alfa Slab One" font-size="107">WITH YOU.</text><text x="81" y="1242" fill="#E8E6E0" font-family="Inter" font-size="27" letter-spacing="2">PHOTOGRAPHY FIELD GUIDE</text><line x1="81" y1="1269" x2="999" y2="1269" stroke="#E47B28" stroke-width="4"/></svg>