<svg xmlns="http://www.w3.org/2000/svg" width="1080" height="1350" viewBox="0 0 1080 1350"><style>@font-face{font-family:'Alfa Slab One';src:url('../../fonts/AlfaSlabOne-Regular.ttf')}@font-face{font-family:'Inter';src:url('../../fonts/Inter-Variable.ttf')}</style><rect width="100%" height="100%" fill="#1A1A1A"/><rect x="756" width="324" height="100%" fill="#F47728"/><circle cx="766" cy="237" r="75" fill="#476E3D"/><g transform="translate(81 81) scale(0.7578125)"><g fill="none" stroke="#F7F6F0" stroke-width="12" stroke-linecap="square"><path d="M48 92V48h44"/><path d="M164 48h44v44"/><path d="M208 164v44h-44"/><path d="M92 208H48v-44"/></g><path d="M78 184 124 70h10l46 114h-25l-10-27h-34l-10 27H78Zm41-48h18l-9-27-9 27Z" fill="#F7F6F0"/><circle cx="183" cy="75" r="14" fill="#F47728"/></g><text x="313" y="174" fill="#F7F6F0" font-family="Inter,Arial,sans-serif" font-size="27" letter-spacing="2">ACTIVE SHOT</text><text x="81" y="484" fill="#F7F6F0" font-family="Alfa Slab One, Georgia, serif" font-size="107">THE SHOT LIST</text><text x="81" y="593" fill="#F7F6F0" font-family="Alfa Slab One, Georgia, serif" font-size="107">THAT MOVES</text><text x="81" y="702" fill="#F7F6F0" font-family="Alfa Slab One, Georgia, serif" font-size="107">WITH YOU.</text><text x="81" y="1242" fill="#F7F6F0" font-family="Inter,Arial,sans-serif" font-size="27" letter-spacing="2">PHOTOGRAPHY FIELD GUIDE</text><line x1="81" y1="1269" x2="999" y2="1269" stroke="#F47728" stroke-width="4"/></svg>