<svg xmlns="http://www.w3.org/2000/svg" width="1200" height="630" viewBox="0 0 1200 630"><style>@font-face{font-family:'Alfa Slab One';src:url('../../fonts/AlfaSlabOne-Regular.ttf')}@font-face{font-family:'Inter';src:url('../../fonts/Inter-Variable.ttf')}</style><rect width="100%" height="390" fill="#E47B28"/><rect y="390" width="100%" height="240" fill="#1A1A1A"/><g transform="translate(47 47) scale(0.44140625)">
<rect width="256" height="256" fill="#476E3D"/>
<g fill="none" stroke-linecap="butt" stroke-linejoin="round">
  <g stroke="#1A1A1A" stroke-width="18"><path d="M35 78V35h43"/><path d="M178 35h43v43"/><path d="M221 178v43h-43"/><path d="M78 221H35v-43"/></g>
  <g stroke="#E8E6E0" stroke-width="8"><path d="M35 78V35h43"/><path d="M178 35h43v43"/><path d="M221 178v43h-43"/><path d="M78 221H35v-43"/></g>
</g>
<path d="M62 194 108 55h40l46 139h-35l-10-30h-42l-10 30Z" fill="#E47B28" stroke="#1A1A1A" stroke-width="8" stroke-linejoin="round"/>
<path d="m128 99-15 43h30Z" fill="#476E3D" stroke="#1A1A1A" stroke-width="7" stroke-linejoin="round"/>
</g><text x="182" y="101" fill="#1A1A1A" font-family="Inter" font-size="18" letter-spacing="2">ACTIVE SHOT</text><text x="47" y="226" fill="#1A1A1A" font-family="Alfa Slab One" font-size="75">PREP. SHOOT.</text><text x="47" y="302" fill="#1A1A1A" font-family="Alfa Slab One" font-size="75">WRAP.</text><text x="47" y="565" fill="#E8E6E0" font-family="Inter" font-size="18" letter-spacing="2">PHOTOGRAPHY FIELD GUIDE</text><line x1="47" y1="583" x2="1153" y2="583" stroke="#E8E6E0" stroke-width="4"/></svg>